<mxfile host="app.diagrams.net" modified="2024-01-17T23:04:50.350Z" agent="Mozilla/5.0 (Windows NT 10.0; Win64; x64) AppleWebKit/537.36 (KHTML, like Gecko) Chrome/120.0.0.0 Safari/537.36" version="21.5.2" etag="I1AsRdDqUD1ZRIJdn6UL" type="github">
  <diagram name="PÃ¡gina-1" id="PDNiq2_FAXO8h46CPkCq">
    <mxGraphModel>
      <root>
        <mxCell id="0" />
        <mxCell id="1" parent="0" />
      </root>
    </mxGraphModel>
  </diagram>
</mxfile>
